<?xml version="1.0" standalone="no"?>
<svg xmlns="http://www.w3.org/2000/svg" viewBox="0 0 172.528 52.68" width="172.528" height="52.68"><rect fill="#353434" width="172.528" height="52.68" x="0" y="0"></rect><path fill="white" fill-rule="nonzero" d="M4.68 28.28L0.20 28.28Q0 28.28 0 28.08L0 28.08L0.08 0.60Q0.08 0.44 0.24 0.44L0.24 0.44L7.92 0.44Q11.60 0.44 13.74 2.68Q15.88 4.92 15.88 8.76L15.88 8.76Q15.88 11.60 14.76 13.68Q13.64 15.76 11.84 16.88Q10.04 18 7.92 18L7.92 18L4.88 18L4.88 28.08Q4.88 28.28 4.68 28.28L4.68 28.28ZM4.88 5.24L4.88 13.16L7.92 13.16Q9.20 13.16 10.14 11.94Q11.08 10.72 11.08 8.76L11.08 8.76Q11.08 7.20 10.24 6.20Q9.40 5.20 7.92 5.20L7.92 5.20L4.88 5.24ZM31.36 28.28L18.44 28.28Q18.28 28.28 18.28 28.08L18.28 28.08L18.32 0.64Q18.32 0.44 18.52 0.44L18.52 0.44L22.96 0.44Q23.16 0.44 23.16 0.64L23.16 0.64L23.12 23.36L31.36 23.36Q31.56 23.36 31.56 23.56L31.56 23.56L31.56 28.08Q31.56 28.28 31.36 28.28L31.36 28.28ZM41 28.68L41 28.68Q38.84 28.68 37.06 27.58Q35.28 26.48 34.20 24.66Q33.12 22.84 33.12 20.64L33.12 20.64L33.16 7.96Q33.16 5.76 34.22 3.96Q35.28 2.16 37.08 1.08Q38.88 0 41 0L41 0Q43.16 0 44.92 1.08Q46.68 2.16 47.74 3.96Q48.80 5.76 48.80 7.96L48.80 7.96L48.84 20.64Q48.84 22.84 47.78 24.66Q46.72 26.48 44.94 27.58Q43.16 28.68 41 28.68ZM41 23.84L41 23.84Q42.20 23.84 43.10 22.86Q44 21.88 44 20.64L44 20.64L43.96 7.96Q43.96 6.64 43.12 5.72Q42.28 4.80 41 4.80L41 4.80Q39.76 4.80 38.88 5.70Q38 6.60 38 7.96L38 7.96L38 20.64Q38 21.96 38.88 22.90Q39.76 23.84 41 23.84ZM56.56 28.28L52.04 28.28Q51.88 28.28 51.88 28.08L51.88 28.08L51.96 0.60Q51.96 0.44 52.12 0.44L52.12 0.44L57 0.44Q57.16 0.44 57.28 0.60L57.28 0.60L60.92 5.88L64.56 0.60Q64.68 0.44 64.84 0.44L64.84 0.44L69.76 0.44Q69.92 0.44 69.92 0.60L69.92 0.60L70 28.08Q70 28.28 69.84 28.28L69.84 28.28L65.32 28.28Q65.16 28.28 65.16 28.08L65.16 28.08L65.12 7.68L60.92 13.76L56.76 7.68L56.72 28.08Q56.72 28.28 56.56 28.28L56.56 28.28ZM86.44 28.28L73.52 28.28Q73.36 28.28 73.36 28.08L73.36 28.08L73.40 0.60Q73.40 0.44 73.56 0.44L73.56 0.44L86.40 0.44Q86.56 0.44 86.56 0.64L86.56 0.64L86.56 5.12Q86.56 5.28 86.40 5.28L86.40 5.28L78.20 5.28L78.20 11.52L86.40 11.52Q86.56 11.52 86.56 11.68L86.56 11.68L86.60 16.20Q86.60 16.36 86.44 16.36L86.44 16.36L78.20 16.36L78.20 23.36L86.44 23.36Q86.60 23.36 86.60 23.56L86.60 23.56L86.60 28.12Q86.60 28.28 86.44 28.28L86.44 28.28ZM94.84 28.28L90.32 28.28Q90.16 28.28 90.16 28.08L90.16 28.08L90.24 0.60Q90.24 0.44 90.40 0.44L90.40 0.44L98.48 0.44Q100.64 0.44 102.46 1.50Q104.28 2.56 105.36 4.34Q106.44 6.12 106.44 8.36L106.44 8.36Q106.44 9.84 106 11.02Q105.56 12.20 104.96 13.02Q104.36 13.84 103.88 14.24L103.88 14.24Q106.04 16.64 106.04 19.88L106.04 19.88L106.08 28.08Q106.08 28.28 105.88 28.28L105.88 28.28L101.36 28.28Q101.20 28.28 101.20 28.16L101.20 28.16L101.20 19.88Q101.20 18.44 100.18 17.38Q99.16 16.32 97.68 16.32L97.68 16.32L95.04 16.32L95 28.08Q95 28.28 94.84 28.28L94.84 28.28ZM95.04 5.24L95.04 11.52L98.48 11.52Q99.72 11.52 100.68 10.60Q101.64 9.68 101.64 8.36L101.64 8.36Q101.64 7.08 100.70 6.16Q99.76 5.24 98.48 5.24L98.48 5.24L95.04 5.24ZM114.16 28.28L109.64 28.28Q109.44 28.28 109.44 28.08L109.44 28.08L109.48 0.60Q109.48 0.44 109.64 0.44L109.64 0.44L114.12 0.44Q114.28 0.44 114.28 0.60L114.28 0.60L114.32 28.08Q114.32 28.28 114.16 28.28L114.16 28.28ZM122.52 28.28L118.04 28.28Q117.84 28.28 117.84 28.08L117.84 28.08L117.92 0.60Q117.92 0.44 118.08 0.44L118.08 0.44L130.88 0.44Q131.08 0.44 131.08 0.60L131.08 0.60L131.08 5.12Q131.08 5.28 130.92 5.28L130.92 5.28L122.72 5.28L122.72 11.48L130.92 11.48Q131.08 11.48 131.08 11.68L131.08 11.68L131.12 16.20Q131.12 16.36 130.92 16.36L130.92 16.36L122.72 16.36L122.72 28.08Q122.72 28.28 122.52 28.28L122.52 28.28ZM143 28.28L138.40 28.28Q138.28 28.28 138.28 28.12L138.28 28.12L138.32 16.76L132.96 0.60Q132.92 0.44 133.08 0.44L133.08 0.44L137.52 0.44Q137.72 0.44 137.76 0.60L137.76 0.60L140.72 11.36L143.72 0.60Q143.76 0.44 143.92 0.44L143.92 0.44L148.40 0.44Q148.56 0.44 148.52 0.60L148.52 0.60L143.12 16.60L143.16 28.12Q143.16 28.28 143 28.28L143 28.28Z" transform="translate(12 12) scale(1)"></path></svg>