<?xml version="1.0" standalone="no"?>
<svg xmlns="http://www.w3.org/2000/svg" viewBox="0 0 125.117 36" width="125.117" height="36"><g fill="#333af2" color="#333af2" transform="translate(0 3.9999999999999982) scale(0.2800001)"><svg width="100.0" height="100.0" x="0.0" y="0.0" viewBox="0 0 100 100"><path d="M26.676,62.385c-0.396,0.661-9.68,16.251-9.68,21.731c0,5.811,4.728,10.538,10.538,10.538s10.538-4.728,10.538-10.538  c0-5.48-9.284-21.07-9.68-21.731C28.031,61.781,27.037,61.781,26.676,62.385z M27.534,92.654c-4.708,0-8.538-3.83-8.538-8.538  c0-3.7,5.543-14.059,8.538-19.242c2.995,5.184,8.538,15.541,8.538,19.242C36.072,88.824,32.242,92.654,27.534,92.654z M82,38h-8  c-0.553,0-1,0.448-1,1v5H55.839C53.171,44,51,41.829,51,39.161V18h5c0.553,0,1-0.448,1-1V9c0-0.552-0.447-1-1-1H21  c-0.553,0-1,0.448-1,1v8c0,0.552,0.447,1,1,1h5v20.783C26,55.444,39.556,69,56.217,69H73v5c0,0.553,0.447,1,1,1h8  c0.553,0,1-0.447,1-1V39C83,38.448,82.553,38,82,38z M22,16v-6h33v6H22z M49,18v3H28v-3H49z M68,67H56.217  C40.658,67,28,54.342,28,38.783V23h21v16.161C49,42.932,52.068,46,55.839,46H68V67z M73,67h-3V46h3V67z M81,73h-6V40h6V73z"></path></svg></g><path fill="#353434" fill-rule="nonzero" d="M2.81 16.97L0.12 16.97Q0 16.97 0 16.85L0 16.85L0.05 0.36Q0.05 0.26 0.14 0.26L0.14 0.26L4.75 0.26Q6.96 0.26 8.24 1.61Q9.53 2.95 9.53 5.26L9.53 5.26Q9.53 6.96 8.86 8.21Q8.18 9.46 7.10 10.13Q6.02 10.80 4.75 10.80L4.75 10.80L2.93 10.80L2.93 16.85Q2.93 16.97 2.81 16.97L2.81 16.97ZM2.93 3.14L2.93 7.90L4.75 7.90Q5.52 7.90 6.08 7.16Q6.65 6.43 6.65 5.26L6.65 5.26Q6.65 4.32 6.14 3.72Q5.64 3.12 4.75 3.12L4.75 3.12L2.93 3.14ZM18.82 16.97L11.06 16.97Q10.97 16.97 10.97 16.85L10.97 16.85L10.99 0.38Q10.99 0.26 11.11 0.26L11.11 0.26L13.78 0.26Q13.90 0.26 13.90 0.38L13.90 0.38L13.87 14.02L18.82 14.02Q18.94 14.02 18.94 14.14L18.94 14.14L18.94 16.85Q18.94 16.97 18.82 16.97L18.82 16.97ZM24.60 17.21L24.60 17.21Q23.30 17.21 22.24 16.55Q21.17 15.89 20.52 14.80Q19.87 13.70 19.87 12.38L19.87 12.38L19.90 4.78Q19.90 3.46 20.53 2.38Q21.17 1.30 22.25 0.65Q23.33 0 24.60 0L24.60 0Q25.90 0 26.95 0.65Q28.01 1.30 28.64 2.38Q29.28 3.46 29.28 4.78L29.28 4.78L29.30 12.38Q29.30 13.70 28.67 14.80Q28.03 15.89 26.96 16.55Q25.90 17.21 24.60 17.21ZM24.60 14.30L24.60 14.30Q25.32 14.30 25.86 13.72Q26.40 13.13 26.40 12.38L26.40 12.38L26.38 4.78Q26.38 3.98 25.87 3.43Q25.37 2.88 24.60 2.88L24.60 2.88Q23.86 2.88 23.33 3.42Q22.80 3.96 22.80 4.78L22.80 4.78L22.80 12.38Q22.80 13.18 23.33 13.74Q23.86 14.30 24.60 14.30ZM33.94 16.97L31.22 16.97Q31.13 16.97 31.13 16.85L31.13 16.85L31.18 0.36Q31.18 0.26 31.27 0.26L31.27 0.26L34.20 0.26Q34.30 0.26 34.37 0.36L34.37 0.36L36.55 3.53L38.74 0.36Q38.81 0.26 38.90 0.26L38.90 0.26L41.86 0.26Q41.95 0.26 41.95 0.36L41.95 0.36L42 16.85Q42 16.97 41.90 16.97L41.90 16.97L39.19 16.97Q39.10 16.97 39.10 16.85L39.10 16.85L39.07 4.61L36.55 8.26L34.06 4.61L34.03 16.85Q34.03 16.97 33.94 16.97L33.94 16.97ZM51.86 16.97L44.11 16.97Q44.02 16.97 44.02 16.85L44.02 16.85L44.04 0.36Q44.04 0.26 44.14 0.26L44.14 0.26L51.84 0.26Q51.94 0.26 51.94 0.38L51.94 0.38L51.94 3.07Q51.94 3.17 51.84 3.17L51.84 3.17L46.92 3.17L46.92 6.91L51.84 6.91Q51.94 6.91 51.94 7.01L51.94 7.01L51.96 9.72Q51.96 9.82 51.86 9.82L51.86 9.82L46.92 9.82L46.92 14.02L51.86 14.02Q51.96 14.02 51.96 14.14L51.96 14.14L51.96 16.87Q51.96 16.97 51.86 16.97L51.86 16.97ZM56.90 16.97L54.19 16.97Q54.10 16.97 54.10 16.85L54.10 16.85L54.14 0.36Q54.14 0.26 54.24 0.26L54.24 0.26L59.09 0.26Q60.38 0.26 61.48 0.90Q62.57 1.54 63.22 2.60Q63.86 3.67 63.86 5.02L63.86 5.02Q63.86 5.90 63.60 6.61Q63.34 7.32 62.98 7.81Q62.62 8.30 62.33 8.54L62.33 8.54Q63.62 9.98 63.62 11.93L63.62 11.93L63.65 16.85Q63.65 16.97 63.53 16.97L63.53 16.97L60.82 16.97Q60.72 16.97 60.72 16.90L60.72 16.90L60.72 11.93Q60.72 11.06 60.11 10.43Q59.50 9.79 58.61 9.79L58.61 9.79L57.02 9.79L57 16.85Q57 16.97 56.90 16.97L56.90 16.97ZM57.02 3.14L57.02 6.91L59.09 6.91Q59.83 6.91 60.41 6.36Q60.98 5.81 60.98 5.02L60.98 5.02Q60.98 4.25 60.42 3.70Q59.86 3.14 59.09 3.14L59.09 3.14L57.02 3.14ZM68.50 16.97L65.78 16.97Q65.66 16.97 65.66 16.85L65.66 16.85L65.69 0.36Q65.69 0.26 65.78 0.26L65.78 0.26L68.47 0.26Q68.57 0.26 68.57 0.36L68.57 0.36L68.59 16.85Q68.59 16.97 68.50 16.97L68.50 16.97ZM73.51 16.97L70.82 16.97Q70.70 16.97 70.70 16.85L70.70 16.85L70.75 0.36Q70.75 0.26 70.85 0.26L70.85 0.26L78.53 0.26Q78.65 0.26 78.65 0.36L78.65 0.36L78.65 3.07Q78.65 3.17 78.55 3.17L78.55 3.17L73.63 3.17L73.63 6.89L78.55 6.89Q78.65 6.89 78.65 7.01L78.65 7.01L78.67 9.72Q78.67 9.82 78.55 9.82L78.55 9.82L73.63 9.82L73.63 16.85Q73.63 16.97 73.51 16.97L73.51 16.97ZM85.80 16.97L83.04 16.97Q82.97 16.97 82.97 16.87L82.97 16.87L82.99 10.06L79.78 0.36Q79.75 0.26 79.85 0.26L79.85 0.26L82.51 0.26Q82.63 0.26 82.66 0.36L82.66 0.36L84.43 6.82L86.23 0.36Q86.26 0.26 86.35 0.26L86.35 0.26L89.04 0.26Q89.14 0.26 89.11 0.36L89.11 0.36L85.87 9.96L85.90 16.87Q85.90 16.97 85.80 16.97L85.80 16.97Z" transform="translate(36, 9.516)"></path></svg>